<svg width="24" height="24" viewBox="0 0 24 24" fill="none" xmlns="http://www.w3.org/2000/svg">
<path d="M7.54168 15.7512L7.54168 7.33121C7.5412 6.99879 7.63486 6.67304 7.81184 6.39165C7.98881 6.11027 8.24185 5.88475 8.54168 5.74121C8.89742 5.57317 9.29321 5.50845 9.68395 5.55442C10.0747 5.60039 10.4446 5.7552 10.7517 6.00121L15.8517 10.2112C16.0423 10.3764 16.1952 10.5807 16.3 10.8102C16.4048 11.0396 16.459 11.2889 16.459 11.5412C16.459 11.7935 16.4048 12.0428 16.3 12.2723C16.1952 12.5017 16.0423 12.706 15.8517 12.8712L10.7517 17.0812C10.4446 17.3272 10.0747 17.482 9.68394 17.528C9.29321 17.574 8.89742 17.5092 8.54168 17.3412C8.24185 17.1977 7.98881 16.9721 7.81184 16.6908C7.63486 16.4094 7.5412 16.0836 7.54168 15.7512Z" fill="white"/>
</svg>
