<svg width="33" height="32" viewBox="0 0 33 32" fill="none" xmlns="http://www.w3.org/2000/svg">
<path fill-rule="evenodd" clip-rule="evenodd" d="M9.83301 2.6665C8.77214 2.6665 7.75473 3.08793 7.00458 3.83808C6.25444 4.58822 5.83301 5.60564 5.83301 6.6665V25.3332C5.83301 26.394 6.25444 27.4115 7.00458 28.1616C7.75473 28.9117 8.77214 29.3332 9.83301 29.3332H23.1663C24.2272 29.3332 25.2446 28.9117 25.9948 28.1616C26.7449 27.4115 27.1663 26.394 27.1663 25.3332V6.6665C27.1663 5.60564 26.7449 4.58822 25.9948 3.83808C25.2446 3.08793 24.2272 2.6665 23.1663 2.6665H9.83301ZM9.83301 7.99984C9.83301 7.64622 9.97348 7.30708 10.2235 7.05703C10.4736 6.80698 10.8127 6.6665 11.1663 6.6665H21.833C22.1866 6.6665 22.5258 6.80698 22.7758 7.05703C23.0259 7.30708 23.1663 7.64622 23.1663 7.99984V13.3332C23.1663 13.6868 23.0259 14.0259 22.7758 14.276C22.5258 14.526 22.1866 14.6665 21.833 14.6665H11.1663C10.8127 14.6665 10.4736 14.526 10.2235 14.276C9.97348 14.0259 9.83301 13.6868 9.83301 13.3332V7.99984ZM11.1663 17.3332C10.8127 17.3332 10.4736 17.4736 10.2235 17.7237C9.97348 17.9737 9.83301 18.3129 9.83301 18.6665C9.83301 19.0201 9.97348 19.3593 10.2235 19.6093C10.4736 19.8594 10.8127 19.9998 11.1663 19.9998H11.1797C11.5333 19.9998 11.8724 19.8594 12.1225 19.6093C12.3725 19.3593 12.513 19.0201 12.513 18.6665C12.513 18.3129 12.3725 17.9737 12.1225 17.7237C11.8724 17.4736 11.5333 17.3332 11.1797 17.3332H11.1663ZM15.1663 18.6665C15.1663 18.3129 15.3068 17.9737 15.5569 17.7237C15.8069 17.4736 16.1461 17.3332 16.4997 17.3332H16.513C16.8666 17.3332 17.2058 17.4736 17.4558 17.7237C17.7059 17.9737 17.8463 18.3129 17.8463 18.6665C17.8463 19.0201 17.7059 19.3593 17.4558 19.6093C17.2058 19.8594 16.8666 19.9998 16.513 19.9998H16.4997C16.1461 19.9998 15.8069 19.8594 15.5569 19.6093C15.3068 19.3593 15.1663 19.0201 15.1663 18.6665ZM16.4997 21.3332C16.1461 21.3332 15.8069 21.4736 15.5569 21.7237C15.3068 21.9737 15.1663 22.3129 15.1663 22.6665C15.1663 23.0201 15.3068 23.3593 15.5569 23.6093C15.8069 23.8594 16.1461 23.9998 16.4997 23.9998H16.513C16.8666 23.9998 17.2058 23.8594 17.4558 23.6093C17.7059 23.3593 17.8463 23.0201 17.8463 22.6665C17.8463 22.3129 17.7059 21.9737 17.4558 21.7237C17.2058 21.4736 16.8666 21.3332 16.513 21.3332H16.4997ZM9.83301 22.6665C9.83301 22.3129 9.97348 21.9737 10.2235 21.7237C10.4736 21.4736 10.8127 21.3332 11.1663 21.3332H11.1797C11.5333 21.3332 11.8724 21.4736 12.1225 21.7237C12.3725 21.9737 12.513 22.3129 12.513 22.6665C12.513 23.0201 12.3725 23.3593 12.1225 23.6093C11.8724 23.8594 11.5333 23.9998 11.1797 23.9998H11.1663C10.8127 23.9998 10.4736 23.8594 10.2235 23.6093C9.97348 23.3593 9.83301 23.0201 9.83301 22.6665ZM23.1663 18.6665C23.1663 18.3129 23.0259 17.9737 22.7758 17.7237C22.5258 17.4736 22.1866 17.3332 21.833 17.3332C21.4794 17.3332 21.1402 17.4736 20.8902 17.7237C20.6402 17.9737 20.4997 18.3129 20.4997 18.6665V22.6665C20.4997 23.0201 20.6402 23.3593 20.8902 23.6093C21.1402 23.8594 21.4794 23.9998 21.833 23.9998C22.1866 23.9998 22.5258 23.8594 22.7758 23.6093C23.0259 23.3593 23.1663 23.0201 23.1663 22.6665V18.6665Z" fill="black"/>
</svg>
