<svg width="33" height="32" viewBox="0 0 33 32" fill="none" xmlns="http://www.w3.org/2000/svg">
<path fill-rule="evenodd" clip-rule="evenodd" d="M9.83331 2.6665C8.77245 2.6665 7.75503 3.08793 7.00489 3.83808C6.25474 4.58822 5.83331 5.60564 5.83331 6.6665V25.3332C5.83331 26.394 6.25474 27.4115 7.00489 28.1616C7.75503 28.9117 8.77245 29.3332 9.83331 29.3332H23.1666C24.2275 29.3332 25.2449 28.9117 25.9951 28.1616C26.7452 27.4115 27.1666 26.394 27.1666 25.3332V6.6665C27.1666 5.60564 26.7452 4.58822 25.9951 3.83808C25.2449 3.08793 24.2275 2.6665 23.1666 2.6665H9.83331ZM9.83331 7.99984C9.83331 7.64622 9.97379 7.30708 10.2238 7.05703C10.4739 6.80698 10.813 6.6665 11.1666 6.6665H21.8333C22.1869 6.6665 22.5261 6.80698 22.7761 7.05703C23.0262 7.30708 23.1666 7.64622 23.1666 7.99984V13.3332C23.1666 13.6868 23.0262 14.0259 22.7761 14.276C22.5261 14.526 22.1869 14.6665 21.8333 14.6665H11.1666C10.813 14.6665 10.4739 14.526 10.2238 14.276C9.97379 14.0259 9.83331 13.6868 9.83331 13.3332V7.99984ZM11.1666 17.3332C10.813 17.3332 10.4739 17.4736 10.2238 17.7237C9.97379 17.9737 9.83331 18.3129 9.83331 18.6665C9.83331 19.0201 9.97379 19.3593 10.2238 19.6093C10.4739 19.8594 10.813 19.9998 11.1666 19.9998H11.18C11.5336 19.9998 11.8727 19.8594 12.1228 19.6093C12.3728 19.3593 12.5133 19.0201 12.5133 18.6665C12.5133 18.3129 12.3728 17.9737 12.1228 17.7237C11.8727 17.4736 11.5336 17.3332 11.18 17.3332H11.1666ZM15.1666 18.6665C15.1666 18.3129 15.3071 17.9737 15.5572 17.7237C15.8072 17.4736 16.1464 17.3332 16.5 17.3332H16.5133C16.8669 17.3332 17.2061 17.4736 17.4561 17.7237C17.7062 17.9737 17.8466 18.3129 17.8466 18.6665C17.8466 19.0201 17.7062 19.3593 17.4561 19.6093C17.2061 19.8594 16.8669 19.9998 16.5133 19.9998H16.5C16.1464 19.9998 15.8072 19.8594 15.5572 19.6093C15.3071 19.3593 15.1666 19.0201 15.1666 18.6665ZM16.5 21.3332C16.1464 21.3332 15.8072 21.4736 15.5572 21.7237C15.3071 21.9737 15.1666 22.3129 15.1666 22.6665C15.1666 23.0201 15.3071 23.3593 15.5572 23.6093C15.8072 23.8594 16.1464 23.9998 16.5 23.9998H16.5133C16.8669 23.9998 17.2061 23.8594 17.4561 23.6093C17.7062 23.3593 17.8466 23.0201 17.8466 22.6665C17.8466 22.3129 17.7062 21.9737 17.4561 21.7237C17.2061 21.4736 16.8669 21.3332 16.5133 21.3332H16.5ZM9.83331 22.6665C9.83331 22.3129 9.97379 21.9737 10.2238 21.7237C10.4739 21.4736 10.813 21.3332 11.1666 21.3332H11.18C11.5336 21.3332 11.8727 21.4736 12.1228 21.7237C12.3728 21.9737 12.5133 22.3129 12.5133 22.6665C12.5133 23.0201 12.3728 23.3593 12.1228 23.6093C11.8727 23.8594 11.5336 23.9998 11.18 23.9998H11.1666C10.813 23.9998 10.4739 23.8594 10.2238 23.6093C9.97379 23.3593 9.83331 23.0201 9.83331 22.6665ZM23.1666 18.6665C23.1666 18.3129 23.0262 17.9737 22.7761 17.7237C22.5261 17.4736 22.1869 17.3332 21.8333 17.3332C21.4797 17.3332 21.1406 17.4736 20.8905 17.7237C20.6405 17.9737 20.5 18.3129 20.5 18.6665V22.6665C20.5 23.0201 20.6405 23.3593 20.8905 23.6093C21.1406 23.8594 21.4797 23.9998 21.8333 23.9998C22.1869 23.9998 22.5261 23.8594 22.7761 23.6093C23.0262 23.3593 23.1666 23.0201 23.1666 22.6665V18.6665Z" fill="#61BB46"/>
</svg>
