<svg width="40" height="36" viewBox="0 0 40 36" fill="none" xmlns="http://www.w3.org/2000/svg">
<rect width="40" height="36" rx="12" fill="#F0F0F3"/>
<path d="M14.5 25C12.9833 25 11.6877 24.475 10.613 23.425C9.53833 22.375 9.00067 21.0917 9 19.575C9 18.275 9.39167 17.1167 10.175 16.1C10.9583 15.0833 11.9833 14.4333 13.25 14.15C13.6667 12.6167 14.5 11.375 15.75 10.425C17 9.475 18.4167 9 20 9C21.95 9 23.6043 9.67933 24.963 11.038C26.3217 12.3967 27.0007 14.0507 27 16C28.15 16.1333 29.1043 16.6293 29.863 17.488C30.6217 18.3467 31.0007 19.3507 31 20.5C31 21.75 30.5627 22.8127 29.688 23.688C28.8133 24.5633 27.7507 25.0007 26.5 25H14.5ZM14.5 23H26.5C27.2 23 27.7917 22.7583 28.275 22.275C28.7583 21.7917 29 21.2 29 20.5C29 19.8 28.7583 19.2083 28.275 18.725C27.7917 18.2417 27.2 18 26.5 18H25V16C25 14.6167 24.5123 13.4373 23.537 12.462C22.5617 11.4867 21.3827 10.9993 20 11C18.6173 11.0007 17.4383 11.4883 16.463 12.463C15.4877 13.4377 15 14.6167 15 16H14.5C13.5333 16 12.7083 16.3417 12.025 17.025C11.3417 17.7083 11 18.5333 11 19.5C11 20.4667 11.3417 21.2917 12.025 21.975C12.7083 22.6583 13.5333 23 14.5 23Z" fill="black"/>
</svg>
