<svg width="33" height="32" viewBox="0 0 33 32" fill="none" xmlns="http://www.w3.org/2000/svg">
<path d="M16.8475 6.3301C16.7545 6.24109 16.6307 6.19141 16.5019 6.19141C16.3731 6.19141 16.2493 6.24109 16.1563 6.3301L4.65002 17.322C4.60116 17.3687 4.56228 17.4249 4.53575 17.4871C4.50921 17.5493 4.49557 17.6162 4.49565 17.6838L4.49377 28.0001C4.49377 28.5305 4.70449 29.0392 5.07956 29.4143C5.45463 29.7894 5.96334 30.0001 6.49377 30.0001H12.5C12.7652 30.0001 13.0196 29.8947 13.2071 29.7072C13.3947 29.5197 13.5 29.2653 13.5 29.0001V20.5001C13.5 20.3675 13.5527 20.2403 13.6465 20.1465C13.7402 20.0528 13.8674 20.0001 14 20.0001H19C19.1326 20.0001 19.2598 20.0528 19.3536 20.1465C19.4473 20.2403 19.5 20.3675 19.5 20.5001V29.0001C19.5 29.2653 19.6054 29.5197 19.7929 29.7072C19.9805 29.8947 20.2348 30.0001 20.5 30.0001H26.5038C27.0342 30.0001 27.5429 29.7894 27.918 29.4143C28.2931 29.0392 28.5038 28.5305 28.5038 28.0001V17.6838C28.5039 17.6162 28.4902 17.5493 28.4637 17.4871C28.4371 17.4249 28.3983 17.3687 28.3494 17.322L16.8475 6.3301Z" fill="black"/>
<path d="M31.1819 15.2594L26.5069 10.7869V4C26.5069 3.73478 26.4015 3.48043 26.214 3.29289C26.0265 3.10536 25.7721 3 25.5069 3H22.5069C22.2417 3 21.9873 3.10536 21.7998 3.29289C21.6123 3.48043 21.5069 3.73478 21.5069 4V6L17.8869 2.53875C17.5481 2.19625 17.0444 2 16.5 2C15.9575 2 15.455 2.19625 15.1163 2.53938L1.82252 15.2581C1.43377 15.6331 1.38502 16.25 1.73877 16.6563C1.82761 16.7588 1.93637 16.8422 2.05846 16.9014C2.18055 16.9605 2.3134 16.9942 2.44892 17.0004C2.58445 17.0066 2.71982 16.9852 2.8468 16.9374C2.97378 16.8896 3.0897 16.8165 3.18752 16.7225L16.1563 4.33C16.2493 4.24099 16.3731 4.19131 16.5019 4.19131C16.6307 4.19131 16.7545 4.24099 16.8475 4.33L29.8175 16.7225C30.0086 16.9057 30.2645 17.0057 30.5291 17.0006C30.7938 16.9954 31.0456 16.8855 31.2294 16.695C31.6131 16.2975 31.5813 15.6413 31.1819 15.2594Z" fill="black"/>
</svg>
