<svg width="33" height="32" viewBox="0 0 33 32" fill="none" xmlns="http://www.w3.org/2000/svg">
<path d="M16.8479 6.3301C16.7548 6.24109 16.631 6.19141 16.5023 6.19141C16.3735 6.19141 16.2497 6.24109 16.1566 6.3301L4.65039 17.322C4.60152 17.3687 4.56265 17.4249 4.53611 17.4871C4.50958 17.5493 4.49594 17.6162 4.49602 17.6838L4.49414 28.0001C4.49414 28.5305 4.70485 29.0392 5.07993 29.4143C5.455 29.7894 5.96371 30.0001 6.49414 30.0001H12.5004C12.7656 30.0001 13.02 29.8947 13.2075 29.7072C13.395 29.5197 13.5004 29.2653 13.5004 29.0001V20.5001C13.5004 20.3675 13.5531 20.2403 13.6468 20.1465C13.7406 20.0528 13.8678 20.0001 14.0004 20.0001H19.0004C19.133 20.0001 19.2602 20.0528 19.3539 20.1465C19.4477 20.2403 19.5004 20.3675 19.5004 20.5001V29.0001C19.5004 29.2653 19.6057 29.5197 19.7933 29.7072C19.9808 29.8947 20.2352 30.0001 20.5004 30.0001H26.5041C27.0346 30.0001 27.5433 29.7894 27.9184 29.4143C28.2934 29.0392 28.5041 28.5305 28.5041 28.0001V17.6838C28.5042 17.6162 28.4906 17.5493 28.464 17.4871C28.4375 17.4249 28.3986 17.3687 28.3498 17.322L16.8479 6.3301Z" fill="#61BB46"/>
<path d="M31.1819 15.2594L26.5069 10.7869V4C26.5069 3.73478 26.4015 3.48043 26.214 3.29289C26.0265 3.10536 25.7721 3 25.5069 3H22.5069C22.2417 3 21.9873 3.10536 21.7998 3.29289C21.6123 3.48043 21.5069 3.73478 21.5069 4V6L17.8869 2.53875C17.5481 2.19625 17.0444 2 16.5 2C15.9575 2 15.455 2.19625 15.1163 2.53938L1.82252 15.2581C1.43377 15.6331 1.38502 16.25 1.73877 16.6563C1.82761 16.7588 1.93637 16.8422 2.05846 16.9014C2.18055 16.9605 2.3134 16.9942 2.44892 17.0004C2.58445 17.0066 2.71982 16.9852 2.8468 16.9374C2.97378 16.8896 3.0897 16.8165 3.18752 16.7225L16.1563 4.33C16.2493 4.24099 16.3731 4.19131 16.5019 4.19131C16.6307 4.19131 16.7545 4.24099 16.8475 4.33L29.8175 16.7225C30.0086 16.9057 30.2645 17.0057 30.5291 17.0006C30.7938 16.9954 31.0456 16.8855 31.2294 16.695C31.6131 16.2975 31.5813 15.6413 31.1819 15.2594Z" fill="#61BB46"/>
</svg>
