<svg width="46" height="46" viewBox="0 0 46 46" fill="none" xmlns="http://www.w3.org/2000/svg">
<path d="M23 4.3125C12.6958 4.3125 4.3125 12.6958 4.3125 23C4.3125 33.3042 12.6958 41.6875 23 41.6875C33.3042 41.6875 41.6875 33.3042 41.6875 23C41.6875 12.6958 33.3042 4.3125 23 4.3125ZM18.488 14.808C19.6264 13.6014 21.2283 12.9375 23 12.9375C24.7717 12.9375 26.3593 13.6059 27.5021 14.8188C28.6602 16.0479 29.2235 17.6992 29.0905 19.4745C28.8246 23 26.0933 25.875 23 25.875C19.9067 25.875 17.17 23 16.9095 19.4736C16.7774 17.6839 17.3398 16.0272 18.488 14.808ZM23 38.8125C20.8891 38.8138 18.7994 38.3913 16.8549 37.57C14.9103 36.7486 13.1505 35.5452 11.6797 34.031C12.522 32.8298 13.5953 31.8084 14.8368 31.0266C17.1269 29.5586 20.0253 28.75 23 28.75C25.9747 28.75 28.8731 29.5586 31.1605 31.0266C32.403 31.8081 33.4772 32.8295 34.3203 34.031C32.8497 35.5454 31.0899 36.749 29.1453 37.5703C27.2007 38.3917 25.1109 38.8141 23 38.8125Z" fill="black"/>
</svg>
