<svg width="127" height="71" viewBox="0 0 127 71" fill="none" xmlns="http://www.w3.org/2000/svg">
<path d="M13.9914 57.1432L11.2392 57.2201L8.74633 57.1432L11.2853 50.5024L13.9914 57.1432ZM21.0932 64.5939C20.4791 63.99 19.9791 63.2208 19.6056 62.3107L12.2315 44.9699H11.7281L11.6732 45.0977C10.4974 47.9197 9.41882 50.4986 8.44392 52.842C8.01842 53.8484 7.60139 54.8477 7.18774 55.8512C6.7724 56.85 6.38413 57.7702 6.02462 58.6252C5.66765 59.476 5.35678 60.2116 5.10174 60.8492C4.84204 61.48 4.66102 61.9397 4.54809 62.2114C4.31251 62.7834 4.082 63.2771 3.86629 63.6729C3.65947 64.0476 3.41161 64.3689 3.13796 64.6183C2.86473 64.8639 2.5323 65.0679 2.14868 65.2235C1.76041 65.3821 1.26598 65.5196 0.672573 65.6214L0.5 65.655V66.2316H0.712755C0.898008 66.2316 1.1952 66.2236 1.60434 66.2076C2.01038 66.1946 2.43036 66.1622 2.86473 66.137C3.29615 66.1054 3.68019 66.0857 4.00755 66.0693C4.33238 66.0524 4.5151 66.0407 4.53793 66.0407L8.46168 66.2446V65.6361L8.26839 65.6214C8.04211 65.6045 7.8078 65.5642 7.57306 65.5053C7.34382 65.4443 7.13445 65.361 6.95004 65.2508C6.77663 65.1503 6.62987 65.0162 6.52075 64.8484C6.41416 64.6906 6.36426 64.506 6.36426 64.2663C6.36426 64.1035 6.4002 63.8907 6.47845 63.6417C6.55966 63.365 6.64975 63.0832 6.74322 62.7783C6.78002 62.6391 6.87856 62.3489 7.03971 61.8956C7.20593 61.4342 7.38991 60.9518 7.59378 60.4404C7.80229 59.8743 8.03069 59.2599 8.28743 58.5966L11.3141 58.5436L14.4845 58.5966C14.6876 59.1387 14.8783 59.6754 15.0691 60.215C15.2518 60.7176 15.4404 61.2327 15.6316 61.7812C15.827 62.3283 16.011 62.8187 16.173 63.2376C16.4568 64.0589 16.4741 64.6292 16.2224 64.9312C15.956 65.2508 15.3461 65.4851 14.4097 65.6214L14.2282 65.6457V66.2316H14.4389C14.7193 66.2316 15.0526 66.224 15.4455 66.2076C15.8283 66.1946 16.2453 66.1622 16.689 66.137C17.1301 66.1054 17.5835 66.0857 18.0526 66.0693C19.1036 66.0306 20.0447 66.0339 20.8919 66.0693C21.3825 66.0857 21.7944 66.1147 22.1556 66.1508C22.5989 66.1946 23.0066 66.2177 23.3771 66.2316L23.5975 66.2425V65.6411L23.408 65.6214C22.4657 65.5326 21.6921 65.1924 21.0932 64.5939Z" fill="#328E19"/>
<path d="M35.2499 50.6835C35.2076 50.7697 35.1602 50.8433 35.1086 50.8811C35.0469 50.9303 34.9691 50.9556 34.8608 50.9812C34.7054 50.9989 34.5089 51.0077 34.2712 51.0077L28.4276 51.0346C27.9962 51.0346 27.55 51.0271 27.0937 51.0077L25.7453 50.9715C25.3181 50.9556 24.9556 50.937 24.6718 50.9101L24.2112 50.8731V51.8539L24.5733 51.9094C24.9391 51.9632 25.2657 52.0213 25.5321 52.0818C25.7707 52.1399 25.9551 52.2164 26.0904 52.3102C26.2135 52.4002 26.301 52.5087 26.3666 52.653C26.4408 52.8226 26.4835 53.0657 26.4948 53.3822C26.5079 53.6577 26.5201 53.9719 26.526 54.3226C26.5337 54.6662 26.5337 55.0283 26.5337 55.3963V62.7714C26.5337 63.0531 26.5337 63.3 26.5256 63.5158C26.5172 63.7496 26.5131 63.9297 26.5134 64.0562C26.5079 64.3523 26.4554 64.5937 26.378 64.7543C26.2998 64.9049 26.197 65.0264 26.0667 65.1076C25.9201 65.2113 25.7265 65.2894 25.486 65.3419C25.2111 65.4016 24.8782 65.4634 24.5111 65.5193L24.1499 65.5698V66.5068L24.5965 66.4829C24.8086 66.4694 25.0666 66.4566 25.3705 66.4446C25.6755 66.4446 25.9889 66.4273 26.3142 66.4139C26.6297 66.4055 26.9422 66.3958 27.2548 66.3912C27.8897 66.3714 28.3206 66.3714 28.9491 66.3912L29.9486 66.4101C30.284 66.4139 30.6033 66.4215 30.9062 66.4387C31.2115 66.448 31.4687 66.4698 31.6861 66.4829L32.1344 66.5068V65.5269L31.7483 65.4975C31.2864 65.4609 30.9066 65.3978 30.6177 65.3301C30.3534 65.2573 30.1499 65.1711 30.0086 65.0752C29.8902 64.9911 29.809 64.8927 29.7574 64.7741C29.6914 64.6109 29.6487 64.4137 29.6221 64.1601C29.5954 63.9515 29.5853 63.626 29.5853 63.2012V55.9855C29.5853 55.5734 29.5853 55.0599 29.5954 54.4538C29.6005 53.9277 29.6052 53.3082 29.606 52.5832L32.7748 52.6008C33.4671 52.6134 33.9764 52.7909 34.2889 53.129C34.6146 53.476 34.8104 53.9925 34.8713 54.6515L34.9052 55.0313H35.8987V54.6128C35.8987 54.5119 35.9 54.3764 35.9076 54.2141L35.9279 53.6758C35.9363 53.4949 35.9452 53.3124 35.9596 53.1375C35.9714 52.9499 35.985 52.7951 35.9913 52.6832C36.0243 52.5146 36.0505 52.2635 36.0725 51.9262C36.0869 51.6293 36.1351 51.3303 36.2113 51.0489L36.2899 50.752L35.4419 50.2263L35.2499 50.6835Z" fill="#328E19"/>
<path d="M47.6009 51.7235C47.0333 51.4098 46.4098 51.1936 45.7386 51.0758C45.0927 50.9673 44.4642 50.9101 43.8565 50.9101L40.9423 50.9921C40.6336 50.9921 40.3121 50.9846 39.9907 50.9829L39.061 50.9635C38.7683 50.9513 38.5027 50.945 38.2591 50.9371C38.0227 50.9328 37.8268 50.9265 37.6712 50.9101L37.2102 50.8731V51.8543L37.5752 51.9094C37.9415 51.9635 38.2616 52.0211 38.5357 52.0823C38.7658 52.1399 38.9561 52.2168 39.1016 52.322C39.2289 52.412 39.322 52.5272 39.3918 52.6736C39.4599 52.8422 39.5077 53.0815 39.5148 53.3953C39.5318 53.6762 39.5415 53.9904 39.5478 54.3306C39.5563 54.67 39.5563 55.0287 39.5563 55.4073V62.7604C39.5563 63.3332 39.5521 63.7702 39.5381 64.0562C39.5246 64.3523 39.4776 64.5945 39.3964 64.7548C39.322 64.9053 39.2217 65.0269 39.0898 65.108C38.9426 65.2119 38.7506 65.2893 38.5078 65.3423C38.2312 65.4016 37.9021 65.4634 37.535 65.5198L37.1704 65.5707V66.5068L37.6213 66.4833C37.8332 66.4698 38.0878 66.4564 38.3919 66.4446C38.6964 66.4446 39.0115 66.4278 39.3325 66.4143C39.6523 66.4059 39.9644 66.3962 40.2736 66.3912C40.9123 66.3714 41.3412 66.3714 41.9705 66.3912L42.9704 66.4101C43.3087 66.4143 43.6276 66.4215 43.9284 66.4387C44.2329 66.4484 44.4955 66.4698 44.7095 66.4833L45.1566 66.5068V65.5273L44.7688 65.4979C44.3077 65.4609 43.9284 65.3982 43.6386 65.3301C43.3756 65.2578 43.1725 65.1715 43.0279 65.0752C42.9128 64.992 42.8308 64.8927 42.7796 64.7741C42.7136 64.6113 42.6684 64.4141 42.6455 64.1605C42.6181 63.9548 42.6062 63.6318 42.6062 63.2016V52.2766C42.7678 52.2766 42.9353 52.2766 43.1433 52.298C43.6623 52.322 44.1403 52.4427 44.5569 52.6694C44.9798 52.8893 45.3503 53.1753 45.6455 53.5286C45.9437 53.876 46.1725 54.2898 46.332 54.7482C46.4974 55.2171 46.5748 55.7138 46.5748 56.2168C46.5748 56.7552 46.4931 57.227 46.3231 57.6144C46.1582 58.0055 45.9255 58.3483 45.6379 58.6254C45.3438 58.9036 44.9893 59.1197 44.5742 59.2739C44.1441 59.4371 43.6691 59.5423 43.1632 59.5898L42.7796 59.636V60.5933L43.1814 60.6143C43.9343 60.6622 44.7019 60.56 45.4633 60.3228C46.2212 60.0835 46.914 59.7324 47.5235 59.2739C48.1431 58.8071 48.6536 58.2335 49.0423 57.5669C49.442 56.8818 49.645 56.113 49.645 55.2874C49.645 54.3945 49.4445 53.6451 49.0529 53.0651C48.6688 52.4936 48.1795 52.0473 47.6009 51.7235Z" fill="#328E19"/>
<path d="M55.7498 63.34C55.2803 62.7125 54.9098 61.9605 54.6459 61.1089C54.3853 60.2526 54.2491 59.3173 54.2491 58.3189C54.2491 57.3322 54.368 56.4347 54.5976 55.6508C54.8248 54.8786 55.1504 54.2238 55.5586 53.7011C55.9591 53.1829 56.4354 52.7775 56.9784 52.5083C57.5131 52.2337 58.1094 52.0949 58.7434 52.0949C59.4942 52.0949 60.1967 52.2631 60.8256 52.613C61.4651 52.9596 62.0171 53.4437 62.4764 54.043C62.9425 54.6477 63.3037 55.3745 63.5617 56.2068C63.8223 57.042 63.9529 57.9572 63.9529 58.9279C63.9529 60.0663 63.8193 61.058 63.5414 61.8701C63.2766 62.6776 62.9273 63.3476 62.5166 63.8552C62.1106 64.3502 61.6445 64.7195 61.1263 64.9613C60.6112 65.1918 60.0808 65.315 59.5602 65.315C58.7781 65.315 58.0544 65.1358 57.4115 64.7897C56.7653 64.4448 56.2036 63.9595 55.7493 63.34M66.9965 55.2168C66.5702 54.2469 65.9734 53.4125 65.2205 52.7211C64.4719 52.0432 63.5672 51.5078 62.5394 51.1348C61.5193 50.7693 60.3934 50.5855 59.1922 50.5855C57.8197 50.5855 56.5796 50.8219 55.5116 51.292C54.4458 51.7551 53.5343 52.3771 52.8056 53.1371C52.0764 53.8954 51.5122 54.776 51.1362 55.7543C50.7568 56.7203 50.5669 57.7339 50.5669 58.7521C50.5669 59.8178 50.7657 60.8515 51.159 61.8331C51.5503 62.8114 52.1208 63.6815 52.8508 64.4284C53.5796 65.1653 54.475 65.7608 55.5028 66.2011C56.5394 66.6389 57.7127 66.8589 58.9892 66.8589C60.2204 66.8589 61.378 66.6528 62.429 66.2348C63.4809 65.8201 64.4068 65.2258 65.1799 64.4835C65.951 63.737 66.5596 62.8412 66.9902 61.8197C67.4157 60.7968 67.6335 59.6752 67.6335 58.4888C67.6335 57.286 67.4212 56.1866 66.9965 55.2168Z" fill="#328E19"/>
<path d="M78.228 45.0771C84.3938 43.5042 89.0658 41.5393 92.9341 34.2791C98.7768 23.3044 98.7725 13.3496 111.607 0C91.9308 11.1526 85.0769 19.2632 78.5994 32.5615C75.4285 39.0618 75.7034 42.171 76.0769 44.2772C74.9611 46.9516 71.4244 55.8617 70.7718 57.5057C70.6494 57.5388 70.5257 57.5832 70.4008 57.639C69.2508 60.7697 68.4764 62.4461 66.8819 65.348C66.6687 66.7207 66.0063 70.9697 66.0063 70.9697H66.1408C66.2254 70.0983 67.0375 66.5168 67.4799 65.1714C67.3721 64.7369 67.7312 64.0981 68.001 64.1544C68.2717 64.2192 67.9803 64.9956 67.6808 65.2033C66.939 66.8822 66.2398 71 66.2398 71L66.409 70.9609C68.1943 67.3987 68.2514 66.8595 70.7265 66.1509C70.2232 64.488 71.1173 61.7324 72.7355 58.399C72.67 58.2421 72.5841 58.1105 72.4894 57.991C73.5446 55.5291 74.7611 51.9475 76.2723 47.7814C78.1925 47.2826 81.0965 47.6119 81.3646 47.9227C81.6632 48.2734 81.8307 48.731 81.8646 49.2811C81.8849 49.663 81.8942 50.1121 81.8942 50.6059V62.0874C81.8942 62.648 81.8849 63.074 81.8646 63.352C81.851 63.8092 81.7728 64.1868 81.6404 64.4451C81.5059 64.7121 81.3333 64.9136 81.1032 65.065C80.8689 65.2265 80.5627 65.3497 80.1947 65.4334C79.8044 65.5276 79.3488 65.6067 78.8438 65.6824L78.6598 65.7017V66.2754L78.8857 66.2606C79.1778 66.2424 79.5292 66.2283 79.9397 66.2182C80.3601 66.2097 80.7848 66.2013 81.217 66.1795C81.6472 66.1626 82.0739 66.1492 82.5028 66.137C82.9257 66.1277 83.3043 66.1202 83.638 66.1202C83.9907 66.1202 84.3849 66.1277 84.829 66.137L86.1888 66.1664C86.6465 66.1723 87.0834 66.195 87.4974 66.2076C87.909 66.224 88.263 66.2425 88.5548 66.2606L88.779 66.2754V65.6664L88.5861 65.6453C87.9361 65.5919 87.3993 65.5141 86.9903 65.4077C86.5944 65.3038 86.2781 65.1714 86.0526 65.0162C85.8352 64.8627 85.6817 64.6755 85.5891 64.4451C85.485 64.2032 85.4174 63.8933 85.381 63.5324C85.3638 63.3911 85.3501 63.2042 85.34 62.9718C85.3326 62.7383 85.329 62.4746 85.329 62.1807L85.3027 56.3454L85.329 51.3002C85.329 50.7127 85.3324 50.2022 85.34 49.7635C85.3497 49.3282 85.3653 48.9602 85.3844 48.6435C85.3983 48.2335 85.4652 47.8882 85.5751 47.6211C85.6775 47.3621 85.8352 47.1535 86.0446 46.9945C86.2616 46.8284 86.5509 46.6976 86.9091 46.6101C87.2834 46.5071 87.7584 46.4326 88.3133 46.3779L88.5053 46.3569V45.7261L87.2517 45.8123C86.8524 45.8426 86.4202 45.877 85.9744 45.9061L84.6167 45.9881C84.1675 46.02 83.7569 46.0394 83.383 46.0394L76.891 46.0886C81.2145 34.3737 87.8422 18.8637 99.4658 10.2395C86.5657 21.7323 82.8226 33.2344 78.228 45.0771Z" fill="#61BB46"/>
<path d="M107.288 65.3301C107.025 65.2573 106.821 65.1711 106.677 65.0752C106.56 64.9911 106.479 64.8927 106.43 64.7741C106.366 64.6109 106.319 64.4137 106.294 64.1601C106.265 63.954 106.256 63.6318 106.256 63.2012L106.235 58.8979L106.255 55.2617C106.256 54.837 106.259 54.4613 106.265 54.1346C106.273 53.8192 106.282 53.5483 106.296 53.3124C106.308 53.0369 106.347 52.8128 106.418 52.6433C106.479 52.4936 106.566 52.3817 106.682 52.29C106.814 52.1912 106.997 52.1121 107.226 52.0473C107.49 51.9792 107.825 51.9304 108.223 51.8905L108.601 51.8526V50.8769L108.153 50.9101C107.95 50.9265 107.711 50.9366 107.434 50.948C107.156 50.9635 106.865 50.9812 106.551 50.9917C106.239 51.0043 105.929 51.0157 105.618 51.0191C105.309 51.0312 105.023 51.0313 104.752 51.0313C104.528 51.0313 104.261 51.0228 103.954 51.0073C103.645 50.9989 103.323 50.9829 102.995 50.9635C102.653 50.9366 102.326 50.9265 102.008 50.9185C101.691 50.9129 101.422 50.9101 101.203 50.9101H100.777V51.8139L101.142 51.8707C101.507 51.9136 101.834 51.9758 102.116 52.0431C102.358 52.0978 102.561 52.1777 102.715 52.2766C102.851 52.3624 102.951 52.481 103.028 52.634C103.111 52.7947 103.154 53.0289 103.164 53.3141V53.4436C101.756 54.8475 100.317 56.2993 98.889 57.7607C97.6582 59.0199 96.405 60.2581 95.1556 61.4588L95.1797 55.2617C95.1797 54.837 95.1797 54.461 95.189 54.1346C95.1911 53.8192 95.2017 53.5483 95.2169 53.3124C95.2275 53.0369 95.2698 52.8161 95.34 52.6433C95.4005 52.4936 95.4872 52.3817 95.6026 52.29C95.7325 52.1912 95.9182 52.1121 96.1483 52.0473C96.4105 51.9792 96.745 51.9304 97.1401 51.8905L97.5258 51.8526V50.8769L97.0741 50.9101C96.8711 50.9265 96.6342 50.9366 96.3559 50.948C96.0793 50.9635 95.7811 50.9812 95.4698 50.9917C95.1624 51.0043 94.8494 51.0157 94.5427 51.0191C94.2297 51.0312 93.9404 51.0313 93.6736 51.0313C93.4464 51.0313 93.1829 51.0228 92.875 51.0073C92.5629 50.9989 92.244 50.9829 91.9132 50.9635C91.574 50.9366 91.2458 50.9265 90.932 50.9185C90.6105 50.9131 90.3428 50.9101 90.1241 50.9101H89.7012V51.8139L90.0628 51.8707C90.4248 51.9136 90.7535 51.9758 91.0377 52.0431C91.2796 52.0981 91.479 52.1774 91.6358 52.2812C91.7711 52.3623 91.8735 52.4809 91.9479 52.6344C92.0262 52.7943 92.0777 53.0289 92.0892 53.3338C92.0985 53.617 92.1083 53.932 92.1188 54.2789C92.125 54.6288 92.1281 54.994 92.1281 55.3744V62.7604C92.1284 63.338 92.1215 63.7698 92.1074 64.0558C92.0959 64.3561 92.0528 64.5865 91.9686 64.7548C91.8929 64.9049 91.7918 65.0264 91.6616 65.108C91.5152 65.2119 91.3152 65.2889 91.0792 65.3419C90.7941 65.4075 90.4659 65.4672 90.1021 65.5193L89.7418 65.5698V66.5068L90.1901 66.4829C90.4044 66.4697 90.6603 66.4568 90.9578 66.4442C91.2699 66.4442 91.5837 66.4269 91.906 66.4139C92.2232 66.4055 92.5388 66.3958 92.8458 66.3908C93.4828 66.3714 93.9142 66.3714 94.5427 66.3908L95.5443 66.4097C95.8776 66.4139 96.199 66.4215 96.5002 66.4387C96.8047 66.448 97.0614 66.4639 97.2797 66.4829L97.728 66.5068V65.5269L97.3393 65.4971C96.8745 65.4609 96.4917 65.3949 96.1956 65.3301C95.9266 65.2573 95.719 65.1711 95.5794 65.0752C95.4571 64.9894 95.3713 64.8885 95.3117 64.7606C95.2457 64.6109 95.2063 64.4229 95.1979 64.2114C95.1976 64.1194 95.1915 64.0441 95.1797 63.9855V63.9721C96.4612 62.7785 97.805 61.455 99.1698 60.0389C100.384 58.7798 101.738 57.4419 103.207 56.057V62.7604C103.207 63.3379 103.203 63.7698 103.187 64.0558C103.176 64.3561 103.13 64.5865 103.047 64.7548C102.972 64.9049 102.871 65.0264 102.741 65.108C102.592 65.2115 102.397 65.2894 102.155 65.3419C101.87 65.4075 101.548 65.4672 101.185 65.5193L100.821 65.5698V66.5068L101.27 66.4829C101.482 66.4697 101.737 66.4568 102.035 66.4442C102.347 66.4442 102.659 66.4269 102.985 66.4139C103.303 66.4055 103.615 66.3958 103.925 66.3908C104.562 66.3714 104.991 66.3714 105.618 66.3908L106.621 66.4097C106.957 66.4139 107.277 66.4215 107.579 66.4387C107.881 66.448 108.142 66.4639 108.359 66.4829L108.808 66.5068V65.5269L108.419 65.4971C107.952 65.4609 107.574 65.3978 107.288 65.3301Z" fill="#61BB46"/>
<path d="M120.815 63.7043C120.815 63.9903 120.775 64.3612 120.57 64.5328C120.374 64.6947 120.081 64.7902 119.693 64.8284C119.411 64.8532 119.168 64.8789 118.967 64.8886C118.567 64.9163 118.201 64.905 117.798 64.9163C117.599 64.9235 117.356 64.9311 117.072 64.9311L113.823 64.9613C114.024 64.6832 114.215 64.3896 114.397 64.0807C114.741 63.4809 115.048 62.8118 115.314 62.1116C115.575 61.4059 115.794 60.6522 115.971 59.8695C116.145 59.0869 116.282 58.2853 116.374 57.4778L116.743 54.5633C116.783 54.239 116.834 53.9345 116.899 53.6632C116.95 53.4382 117.046 53.2477 117.186 53.0799C117.322 52.9209 117.521 52.7952 117.784 52.6955C118.072 52.5887 118.474 52.5399 118.975 52.5399C119.423 52.5399 119.774 52.5681 120.031 52.6215C120.24 52.6694 120.397 52.7351 120.495 52.8251C120.588 52.9111 120.651 53.0265 120.685 53.1712C120.735 53.3848 120.764 53.6632 120.778 54.0035C120.805 54.5742 120.815 55.2538 120.815 56.0298V63.7043ZM126.031 65.2911C125.556 65.2557 125.168 65.212 124.87 65.1468C124.603 65.093 124.397 65.0269 124.244 64.9399C124.131 64.8793 124.051 64.7965 124.007 64.7094C123.967 64.6245 123.911 64.4613 123.885 64.1606C123.859 63.9482 123.849 63.645 123.849 63.2555L123.825 58.8337L123.849 55.0999C123.849 54.6701 123.85 54.2966 123.856 53.9719C123.866 53.6544 123.874 53.3848 123.885 53.1506C123.898 52.8726 123.937 52.653 124.007 52.481C124.071 52.3372 124.157 52.2169 124.272 52.1299C124.404 52.0302 124.588 51.9448 124.819 51.8872C125.078 51.8207 125.415 51.7652 125.811 51.727L126.195 51.6887V50.6962L125.742 50.7256C125.54 50.7437 125.299 50.7559 125.014 50.7676C124.732 50.7803 124.424 50.7946 124.1 50.8068L123.121 50.853C122.796 50.8652 122.507 50.8732 122.235 50.8732L118.534 50.9304C118.146 50.9418 117.723 50.9451 117.269 50.9371C116.417 50.9304 115.392 50.9413 114.385 50.9005C113.927 50.8774 113.442 50.8438 112.94 50.7883L112.474 50.7437V51.7476L112.824 51.8064C113.229 51.8708 113.585 51.9398 113.901 52.0041C114.17 52.0655 114.397 52.145 114.57 52.2535C114.72 52.3498 114.833 52.4701 114.92 52.6228C115.005 52.7952 115.054 53.029 115.064 53.3335C115.077 53.5909 115.073 53.8832 115.054 54.2142C115.033 54.561 115.011 54.9101 114.987 55.2614C114.956 55.6164 114.92 55.9696 114.873 56.3204L114.741 57.3382C114.674 57.8205 114.584 58.3547 114.481 58.9355C114.374 59.51 114.234 60.0958 114.067 60.6955C113.904 61.2801 113.694 61.8563 113.438 62.4148C113.192 62.9573 112.876 63.4452 112.514 63.8645C112.155 64.2758 111.729 64.611 111.251 64.8625C110.78 65.1056 110.213 65.2393 109.561 65.2511L109.077 65.2574L109.153 65.7356C109.193 65.9753 109.219 66.2832 109.236 66.6394C109.258 67.0053 109.274 67.3804 109.281 67.7577C109.285 68.1379 109.291 68.4933 109.291 68.8268C109.291 69.1767 109.297 69.4273 109.311 69.5956L109.346 69.9858H110.302L110.337 69.609C110.389 69.069 110.479 68.604 110.606 68.214C110.723 67.851 110.886 67.5449 111.09 67.2997C111.284 67.0705 111.526 66.901 111.834 66.7836C112.164 66.655 112.582 66.583 113.077 66.5553C113.845 66.5343 114.449 66.5166 114.88 66.4989C115.294 66.4829 115.631 66.4737 115.926 66.4695C116.191 66.464 116.426 66.4564 116.62 66.4564H118.454C118.948 66.4564 119.472 66.464 120.023 66.4699L121.633 66.4863C122.149 66.4956 122.551 66.5069 122.833 66.5212C123.356 66.5372 123.767 66.6415 124.048 66.8181C124.338 67.0019 124.558 67.2198 124.711 67.4822C124.877 67.7552 124.989 68.0554 125.047 68.3961C125.11 68.7599 125.16 69.1266 125.186 69.477L125.211 69.8635H126.182L126.212 69.4765C126.225 69.2873 126.233 69.0337 126.233 68.7103C126.233 68.4096 126.239 68.0845 126.254 67.7303C126.266 67.3712 126.285 67.0183 126.306 66.6701C126.321 66.3404 126.358 66.0409 126.408 65.792L126.5 65.3335L126.031 65.2911Z" fill="#61BB46"/>
</svg>
