<svg width="32" height="33" viewBox="0 0 32 33" fill="none" xmlns="http://www.w3.org/2000/svg">
<path d="M5.33366 17.8333C3.85366 17.8333 2.66699 19.02 2.66699 20.5V25.8333C2.66699 27.3133 3.85366 28.5 5.33366 28.5H10.667C12.147 28.5 13.3337 27.3133 13.3337 25.8333V20.5C13.3337 19.02 12.147 17.8333 10.667 17.8333M10.9337 19.8333L12.347 21.2333L7.02699 26.5L3.65366 23.1L5.08033 21.7L7.04033 23.6867M5.33366 4.5C3.85366 4.5 2.66699 5.68667 2.66699 7.16667V12.5C2.66699 13.98 3.85366 15.1667 5.33366 15.1667H10.667C12.147 15.1667 13.3337 13.98 13.3337 12.5V7.16667C13.3337 5.68667 12.147 4.5 10.667 4.5M5.33366 7.16667H10.667V12.5H5.33366M16.0003 7.16667H29.3337V9.83333H16.0003M16.0003 25.8333V23.1667H29.3337V25.8333M16.0003 15.1667H29.3337V17.8333H16.0003V15.1667Z" fill="black"/>
</svg>
