<svg width="33" height="32" viewBox="0 0 33 32" fill="none" xmlns="http://www.w3.org/2000/svg">
<path d="M18.98 21.9644V22H19L18.98 21.9644Z" fill="black"/>
<path d="M16.5 24C17.8925 24 18.96 23.3356 18.9788 22H14C14 23.3594 15.0956 24 16.5 24ZM18.9794 22H19L18.98 21.9644C18.98 21.9762 18.9794 21.9881 18.9794 22Z" fill="white"/>
<path d="M16.5 3C9.33187 3 3.5 8.83187 3.5 16C3.5 23.1681 9.33187 29 16.5 29C23.6681 29 29.5 23.1681 29.5 16C29.5 8.83187 23.6681 3 16.5 3ZM16.5 24C15.095 24 14 23.3594 14 22H19C18.9812 23.3356 17.8931 24 16.5 24ZM23.5 21H9.5V19.25L11.25 17V14.9812C11.25 12.4556 12.2388 10.2719 14.75 9.71437L15 8H18L18.25 9.71437C20.75 10.2719 21.75 12.4644 21.75 14.9812V17L23.5 19.25V21Z" fill="black"/>
<circle cx="28.5" cy="4.5" r="4" fill="#CE2323"/>
</svg>
