<svg width="33" height="33" viewBox="0 0 33 33" fill="none" xmlns="http://www.w3.org/2000/svg">
<path d="M5.5 17.875C3.97375 17.875 2.75 19.0988 2.75 20.625V26.125C2.75 27.6513 3.97375 28.875 5.5 28.875H11C12.5262 28.875 13.75 27.6513 13.75 26.125V20.625C13.75 19.0988 12.5262 17.875 11 17.875M11.275 19.9375L12.7325 21.3813L7.24625 26.8125L3.7675 23.3063L5.23875 21.8625L7.26 23.9112M5.5 4.125C3.97375 4.125 2.75 5.34875 2.75 6.875V12.375C2.75 13.9012 3.97375 15.125 5.5 15.125H11C12.5262 15.125 13.75 13.9012 13.75 12.375V6.875C13.75 5.34875 12.5262 4.125 11 4.125M5.5 6.875H11V12.375H5.5M16.5 6.875H30.25V9.625H16.5M16.5 26.125V23.375H30.25V26.125M16.5 15.125H30.25V17.875H16.5V15.125Z" fill="#61BB46"/>
</svg>
