<svg width="24" height="24" viewBox="0 0 24 24" fill="none" xmlns="http://www.w3.org/2000/svg">
<path d="M12 2C6.48606 2 2 6.48606 2 12C2 17.5139 6.48606 22 12 22C17.5139 22 22 17.5139 22 12C22 6.48606 17.5139 2 12 2ZM15.8462 12.7692H12.7692V15.8462C12.7692 16.0502 12.6882 16.2458 12.5439 16.3901C12.3997 16.5343 12.204 16.6154 12 16.6154C11.796 16.6154 11.6003 16.5343 11.4561 16.3901C11.3118 16.2458 11.2308 16.0502 11.2308 15.8462V12.7692H8.15385C7.94983 12.7692 7.75418 12.6882 7.60992 12.5439C7.46566 12.3997 7.38462 12.204 7.38462 12C7.38462 11.796 7.46566 11.6003 7.60992 11.4561C7.75418 11.3118 7.94983 11.2308 8.15385 11.2308H11.2308V8.15385C11.2308 7.94983 11.3118 7.75418 11.4561 7.60992C11.6003 7.46566 11.796 7.38462 12 7.38462C12.204 7.38462 12.3997 7.46566 12.5439 7.60992C12.6882 7.75418 12.7692 7.94983 12.7692 8.15385V11.2308H15.8462C16.0502 11.2308 16.2458 11.3118 16.3901 11.4561C16.5343 11.6003 16.6154 11.796 16.6154 12C16.6154 12.204 16.5343 12.3997 16.3901 12.5439C16.2458 12.6882 16.0502 12.7692 15.8462 12.7692Z" fill="#61BB46"/>
</svg>
