<svg width="33" height="32" viewBox="0 0 33 32" fill="none" xmlns="http://www.w3.org/2000/svg">
<path d="M16.6812 3.00023C9.36999 2.90148 3.40124 8.87023 3.49999 16.1815C3.59749 23.1934 9.30686 28.9027 16.3187 29.0002C23.6312 29.1002 29.5987 23.1315 29.4987 15.8202C29.4025 8.80711 23.6931 3.09773 16.6812 3.00023ZM24.5825 23.4534C24.5576 23.4803 24.5271 23.5014 24.4931 23.5152C24.4591 23.529 24.4225 23.5352 24.3859 23.5333C24.3493 23.5314 24.3136 23.5214 24.2812 23.5042C24.2489 23.4869 24.2207 23.4627 24.1987 23.4334C23.6397 22.702 22.9551 22.0758 22.1769 21.584C20.5856 20.5627 18.5694 20.0002 16.5 20.0002C14.4306 20.0002 12.4144 20.5627 10.8231 21.584C10.0449 22.0755 9.36026 22.7015 8.80124 23.4327C8.77927 23.4621 8.75112 23.4863 8.71877 23.5035C8.68642 23.5208 8.65067 23.5308 8.61405 23.5327C8.57743 23.5346 8.54084 23.5284 8.50687 23.5146C8.4729 23.5008 8.44238 23.4797 8.41749 23.4527C6.58353 21.473 5.54467 18.886 5.49999 16.1877C5.39811 10.1059 10.3887 5.01523 16.4731 5.00023C22.5575 4.98523 27.5 9.92586 27.5 16.0002C27.5021 18.7636 26.46 21.4257 24.5825 23.4534Z" fill="#61BB46"/>
<path d="M16.5 9C15.2675 9 14.1531 9.46188 13.3612 10.3013C12.5694 11.1406 12.1737 12.3012 12.2631 13.5469C12.4444 16 14.345 18 16.5 18C18.655 18 20.5519 16 20.7369 13.5475C20.8294 12.3137 20.4369 11.1638 19.6319 10.3088C18.8369 9.465 17.7244 9 16.5 9Z" fill="#61BB46"/>
</svg>
