<svg width="33" height="32" viewBox="0 0 33 32" fill="none" xmlns="http://www.w3.org/2000/svg">
<path d="M4.63161 22.3125C4.43858 22.3126 4.24965 22.2568 4.08762 22.1519C3.92559 22.047 3.79739 21.8974 3.71849 21.7213C2.76378 19.589 2.35783 17.2518 2.53762 14.9226C2.71741 12.5933 3.47723 10.3461 4.74784 8.38564C6.01845 6.4252 7.75946 4.8139 9.81221 3.69855C11.865 2.58321 14.1642 1.99929 16.5004 2C16.7656 2 17.0199 2.10536 17.2075 2.29289C17.395 2.48043 17.5004 2.73478 17.5004 3V16C17.5004 16.1931 17.4445 16.3821 17.3395 16.5441C17.2345 16.7062 17.0848 16.8343 16.9085 16.9131L5.03974 22.2225C4.91161 22.2811 4.7725 22.3118 4.63161 22.3125Z" fill="black"/>
<path d="M20.0993 4.26144C20.0268 4.24674 19.952 4.24831 19.8801 4.26603C19.8083 4.28376 19.7413 4.31721 19.684 4.36396C19.6267 4.41072 19.5804 4.46961 19.5486 4.5364C19.5168 4.60319 19.5002 4.67621 19.5 4.75019V16.0002C19.4995 16.5792 19.3317 17.1457 19.0168 17.6316C18.7019 18.1175 18.2533 18.502 17.725 18.7389L6.9456 23.5627C6.87878 23.5925 6.81933 23.6366 6.77143 23.692C6.72353 23.7473 6.68836 23.8124 6.66839 23.8828C6.64842 23.9532 6.64415 24.0271 6.65587 24.0994C6.66759 24.1716 6.69502 24.2403 6.73622 24.3008C7.56115 25.5141 8.58515 26.5793 9.76497 27.4514C12.0003 29.1143 14.714 30.0085 17.5 30.0002C24.6681 30.0002 30.5 24.1683 30.5 17.0002C30.5 10.7221 26.0262 5.46894 20.0993 4.26144Z" fill="black"/>
</svg>
