<svg width="40" height="36" viewBox="0 0 40 36" fill="none" xmlns="http://www.w3.org/2000/svg">
<rect width="40" height="36" rx="12" fill="black"/>
<path d="M13.625 21.5L12.5 23.75M14.375 25.25L13.625 26.75M26.75 21.5L25.625 23.75M27.5 25.25L26.75 26.75M17.75 19.25L17 23.75H19.25V27.5L23 22.25H20.75L21.5 19.25M26.953 12.1667H26.3844C26.0333 8.97735 23.2878 6.5 20 6.5C18.679 6.49873 17.3901 6.90667 16.3104 7.66773C15.2307 8.4288 14.4133 9.50562 13.9705 10.7502H13.7563C11.4153 10.7502 9.5 12.6627 9.5 14.9998C9.5 17.3375 11.4153 19.25 13.7563 19.25H26.953C28.9062 19.25 30.5 17.6563 30.5 15.7081C30.5 13.7605 28.9062 12.1667 26.953 12.1667Z" stroke="white" stroke-width="1.5" stroke-linecap="round" stroke-linejoin="round"/>
</svg>
