<svg width="24" height="24" viewBox="0 0 24 24" fill="none" xmlns="http://www.w3.org/2000/svg">
<path d="M23.0298 15.2198L20.2497 12.4392C20.1107 12.2995 19.9453 12.1888 19.7632 12.1134C19.5812 12.038 19.3859 11.9995 19.1889 12H12.7497V10.5H19.4997C19.8975 10.5 20.279 10.342 20.5603 10.0607C20.8416 9.77936 20.9997 9.39782 20.9997 9V4.5C20.9997 4.10218 20.8416 3.72064 20.5603 3.43934C20.279 3.15804 19.8975 3 19.4997 3H12.7497V2.25C12.7497 2.05109 12.6706 1.86032 12.53 1.71967C12.3893 1.57902 12.1986 1.5 11.9997 1.5C11.8007 1.5 11.61 1.57902 11.4693 1.71967C11.3287 1.86032 11.2497 2.05109 11.2497 2.25V3H4.81043C4.61336 2.99945 4.41814 3.03799 4.23606 3.11338C4.05398 3.18877 3.88866 3.29952 3.74965 3.43922L0.969496 6.21984C0.82895 6.36048 0.75 6.55117 0.75 6.75C0.75 6.94883 0.82895 7.13952 0.969496 7.28016L3.74965 10.0608C3.88866 10.2005 4.05398 10.3112 4.23606 10.3866C4.41814 10.462 4.61336 10.5005 4.81043 10.5H11.2497V12H4.49965C4.10183 12 3.7203 12.158 3.43899 12.4393C3.15769 12.7206 2.99965 13.1022 2.99965 13.5V18C2.99965 18.3978 3.15769 18.7794 3.43899 19.0607C3.7203 19.342 4.10183 19.5 4.49965 19.5H11.2497V21.75C11.2497 21.9489 11.3287 22.1397 11.4693 22.2803C11.61 22.421 11.8007 22.5 11.9997 22.5C12.1986 22.5 12.3893 22.421 12.53 22.2803C12.6706 22.1397 12.7497 21.9489 12.7497 21.75V19.5H19.1889C19.3859 19.5005 19.5812 19.462 19.7632 19.3866C19.9453 19.3112 20.1107 19.2005 20.2497 19.0608L23.0298 16.2802C23.1704 16.1395 23.2493 15.9488 23.2493 15.75C23.2493 15.5512 23.1704 15.3605 23.0298 15.2198Z" fill="#61BB46"/>
</svg>
